<svg width="24" height="25" viewBox="0 0 24 25" fill="none" xmlns="http://www.w3.org/2000/svg">
<path fill-rule="evenodd" clip-rule="evenodd" d="M8.56299 19.5H4.33771C3.59891 19.5 3 18.9011 3 18.1623V17.2893C3 16.7839 3.20077 16.2992 3.55814 15.9419C4.48135 15.0187 5 13.7665 5 12.4609V9.5C5 5.63401 8.13401 2.5 12 2.5C15.866 2.5 19 5.63401 19 9.5V12.4609C19 13.7665 19.5187 15.0187 20.4419 15.9419C20.7992 16.2992 21 16.7839 21 17.2893V18.1623C21 18.9011 20.4011 19.5 19.6623 19.5H15.437C15.437 19.8565 15.4254 20.5363 15.0669 21.1873C14.4734 22.2646 13.3236 23 12 23C10.6763 23 9.52655 22.2646 8.93311 21.1873C8.57454 20.5363 8.56299 19.8565 8.56299 19.5ZM19.3812 17.0025C19.4573 17.0786 19.5 17.1818 19.5 17.2893V18H4.5V17.2893C4.5 17.1818 4.54273 17.0786 4.6188 17.0025C5.82331 15.798 6.5 14.1643 6.5 12.4609V9.5C6.5 6.46243 8.96244 4 12 4C15.0376 4 17.5 6.46243 17.5 9.5V12.4609C17.5 14.1643 18.1767 15.798 19.3812 17.0025ZM13.937 19.5H10.063C10.063 19.832 10.0868 20.1728 10.247 20.4636C10.3587 20.6665 10.5047 20.8479 10.6771 21C11.0296 21.3112 11.4928 21.5 12 21.5C12.5072 21.5 12.9703 21.3112 13.3229 21C13.4953 20.8479 13.6412 20.6665 13.753 20.4636C13.9132 20.1728 13.937 19.832 13.937 19.5Z" fill="black"/>
</svg>
