<svg width="16" height="16" viewBox="0 0 16 16" fill="none" xmlns="http://www.w3.org/2000/svg">
<path d="M10.6667 6.66667C10.6667 6.94281 10.4428 7.16667 10.1667 7.16667H5.83334C5.5572 7.16667 5.33334 6.94281 5.33334 6.66667C5.33334 6.39053 5.5572 6.16667 5.83334 6.16667H10.1667C10.4428 6.16667 10.6667 6.39053 10.6667 6.66667Z" fill="black"/>
<path d="M9.33334 9.33333C9.33334 9.60946 9.10948 9.83333 8.83334 9.83333H5.83334C5.5572 9.83333 5.33334 9.60946 5.33334 9.33333C5.33334 9.05719 5.5572 8.83333 5.83334 8.83333H8.83334C9.10948 8.83333 9.33334 9.05719 9.33334 9.33333Z" fill="black"/>
<path fill-rule="evenodd" clip-rule="evenodd" d="M6.66666 0.666672C5.93028 0.666672 5.33332 1.26363 5.33332 2.00001H3.99999C3.26361 2.00001 2.66666 2.59696 2.66666 3.33334V13.3333C2.66666 14.0697 3.26361 14.6667 3.99999 14.6667H12C12.7364 14.6667 13.3333 14.0697 13.3333 13.3333V3.33334C13.3333 2.59696 12.7364 2.00001 12 2.00001H10.6667C10.6667 1.26363 10.0697 0.666672 9.33332 0.666672H6.66666ZM9.66666 2.00001C9.66666 1.81591 9.51739 1.66667 9.33332 1.66667H6.66666C6.48256 1.66667 6.33332 1.81591 6.33332 2.00001V3.00001C6.33332 3.1841 6.48256 3.33334 6.66666 3.33334H9.33332C9.51739 3.33334 9.66666 3.1841 9.66666 3.00001V2.00001ZM10.6667 3.00001C10.6667 3.73639 10.0697 4.33334 9.33332 4.33334H6.66666C5.93028 4.33334 5.33332 3.73639 5.33332 3.00001H3.99999C3.8159 3.00001 3.66666 3.14925 3.66666 3.33334V13.3333C3.66666 13.5174 3.8159 13.6667 3.99999 13.6667H12C12.1841 13.6667 12.3333 13.5174 12.3333 13.3333V3.33334C12.3333 3.14925 12.1841 3.00001 12 3.00001H10.6667Z" fill="black"/>
</svg>
