<svg width="22" height="21" viewBox="0 0 22 21" fill="none" xmlns="http://www.w3.org/2000/svg">
<g id="&#240;&#159;&#166;&#134; emoji &#34;waving hand sign&#34;">
<path id="Vector" d="M6.94544 15.9029C6.79045 15.8952 6.66557 15.883 6.5061 15.8453C6.34664 15.8075 6.22176 15.7953 6.09239 15.753C5.80356 15.673 5.54034 15.5583 5.27264 15.4136C4.74173 15.1542 4.28319 14.761 3.90149 14.2641C3.52428 13.7972 3.25402 13.2221 3.13874 12.6547C3.06381 12.3582 3.05356 12.0828 3.03883 11.7773C3.04651 11.6223 3.05868 11.4974 3.06636 11.3424C3.07405 11.1875 3.11632 11.0581 3.124 10.9031L3.21686 11.32C3.23928 11.4705 3.28731 11.5864 3.33983 11.7325C3.41027 11.9989 3.51082 12.2608 3.60689 12.4926C3.8035 12.9864 4.05583 13.4411 4.39398 13.8523C4.73212 14.2634 5.09588 14.64 5.54546 14.973C5.75296 15.1267 5.99056 15.2759 6.22816 15.4251C6.33191 15.502 6.46576 15.5744 6.59961 15.6467L6.94544 15.9029ZM7.01653 16.9999C6.93519 17.0736 6.81928 17.1216 6.70336 17.1696C6.58744 17.2177 6.50163 17.2612 6.38123 17.2792C6.17501 17.3406 5.9387 17.4066 5.69341 17.4124C5.23743 17.4495 4.7379 17.4009 4.31522 17.2484C3.86244 17.1005 3.45192 16.8232 3.15284 16.4678C3.00554 16.3051 2.85376 16.1123 2.73208 15.9151C2.68853 15.8293 2.6405 15.7133 2.59247 15.5974C2.57902 15.5071 2.53547 15.4213 2.51754 15.3009C2.62129 15.3778 2.69494 15.4591 2.7641 15.5103C2.86785 15.5872 2.9415 15.6685 3.01067 15.7197C3.18358 15.8478 3.3264 15.9804 3.49483 16.0784C3.83618 16.3044 4.17304 16.5004 4.56114 16.6272C4.91914 16.7585 5.33285 16.8507 5.71198 16.9173C5.90155 16.9506 6.11673 16.9493 6.3364 16.9782C6.43118 16.9948 6.55158 16.9769 6.64636 16.9935C6.80135 17.0012 6.89165 16.9878 7.01653 16.9999ZM11.6403 1.35818C11.7953 1.36586 11.9247 1.40813 12.0841 1.44592C12.2436 1.4837 12.373 1.52597 12.5023 1.56824C12.7957 1.67839 13.0589 1.79302 13.3266 1.93776C13.862 2.22723 14.325 2.65055 14.6766 3.152C15.0282 3.65345 15.2683 4.23303 15.3535 4.80493C15.3984 5.10593 15.4086 5.38131 15.3932 5.69128C15.3856 5.84626 15.3734 5.97114 15.3356 6.13061C15.2978 6.29008 15.2856 6.41496 15.2434 6.54432L15.1505 6.12741C15.1281 5.97691 15.1102 5.85651 15.0577 5.71049L14.8463 4.91124C14.6798 4.41299 14.423 3.92819 14.1105 3.48246C13.7979 3.03672 13.4342 2.66016 13.0147 2.32265C12.8027 2.13885 12.5651 1.98963 12.3531 1.80583C12.2494 1.72898 12.1155 1.65662 11.9817 1.58425L11.6403 1.35818ZM14.2411 0.84775C14.366 0.859918 14.4608 0.876568 14.56 0.923319C14.6548 0.939969 14.7842 0.982237 14.8834 1.02899C15.082 1.12249 15.2805 1.21599 15.4835 1.33959C15.8594 1.59128 16.1841 1.91213 16.3974 2.31111C16.6408 2.70561 16.7682 3.14815 16.7753 3.60861C16.7765 3.82379 16.7477 4.04346 16.7189 4.26312C16.7023 4.35791 16.66 4.48727 16.6433 4.58206C16.5966 4.68132 16.5799 4.77611 16.5031 4.87985L16.4583 4.57886L16.4134 4.27786C16.382 4.06716 16.325 3.89104 16.2981 3.71044C16.1797 3.32811 16.0657 2.97587 15.8659 2.66719C15.6616 2.32841 15.4361 2.05431 15.1761 1.75459C15.0333 1.62202 14.886 1.45935 14.7432 1.32679C14.6695 1.24545 14.6004 1.19422 14.4966 1.11737C14.414 0.975834 14.3103 0.898984 14.2411 0.84775Z" fill="#42ADE2"/>
<path id="Vector_2" d="M3.7407 6.99603C3.17905 7.3566 3.07595 8.11038 3.43651 8.67203L8.40816 16.0234L10.3672 14.7163L5.39108 7.33481C5.03052 6.77316 4.29787 6.60537 3.7407 6.99603ZM14.6408 11.803L16.7112 10.4178L11.0319 2.03335C10.6413 1.47618 9.87851 1.31288 9.29124 1.70802C8.73407 2.09869 8.57077 2.86143 8.96591 3.4487L14.6408 11.803Z" fill="#FFDD67"/>
<path id="Vector_3" d="M9.31805 1.67322C9.26234 1.71228 9.20662 1.75135 9.15539 1.82051C9.70487 1.58483 10.3472 1.76607 10.6988 2.26752L16.3781 10.6519L16.7425 10.4131L11.0632 2.02864C10.6681 1.44138 9.90532 1.27807 9.31805 1.67322Z" fill="#EBA352"/>
<path id="Vector_4" d="M10.363 14.6861L12.5148 13.2272L6.71832 4.67565C6.32318 4.08838 5.49575 3.90394 4.90848 4.29909C4.32121 4.69423 4.16688 5.51718 4.56202 6.10444L10.363 14.6861Z" fill="#FFDD67"/>
<path id="Vector_5" d="M4.91366 4.32932C4.85795 4.36839 4.80223 4.40745 4.751 4.47662C5.30048 4.24094 6.00303 4.41321 6.3591 4.94476L9.95447 10.2859L10.675 10.5786L6.72351 4.70588C6.32388 4.08851 5.53103 3.92969 4.91366 4.32932Z" fill="#EBA352"/>
<path id="Vector_6" d="M12.0469 12.5584L14.1987 11.0995L8.40215 2.54789C8.00701 1.96062 7.17958 1.77618 6.59679 2.20143C6.00952 2.59657 5.85519 3.41952 6.25033 4.00678L12.0469 12.5584Z" fill="#FFDD67"/>
<path id="Vector_7" d="M6.5908 2.17158C6.53509 2.21065 6.48385 2.27982 6.42814 2.31888C6.97762 2.0832 7.68017 2.25547 8.03625 2.78703L12.1049 8.82685L12.8254 9.11952L8.40065 2.54815C8.00102 1.93078 7.17807 1.77644 6.5908 2.17158ZM3.74029 6.99592C3.68458 7.03498 3.62886 7.07405 3.57763 7.14321C4.09701 6.91202 4.70926 7.09774 5.03075 7.60367L7.9921 11.9931L8.71257 12.2858L5.39515 7.36479C5.03011 6.77304 4.29746 6.60525 3.74029 6.99592Z" fill="#EBA352"/>
<path id="Vector_8" d="M18.8964 3.81537C17.9895 3.30431 16.7682 4.19387 16.4288 6.45969C16.2015 8.03194 16.2085 8.4924 15.3126 9.08736L14.6049 8.05436C14.6049 8.05436 6.6707 13.4513 7.10043 14.0641C7.10043 14.0641 8.59903 17.1023 10.5645 18.3172C13.4848 20.159 19.1808 16.88 18.5954 11.0906C18.2483 7.72709 19.8724 4.37766 18.8964 3.81537Z" fill="#FFDD67"/>
<g id="Group">
<path id="Vector_9" d="M18.8968 3.81521C18.7284 3.71723 18.5388 3.68393 18.3537 3.68073C18.3883 3.70634 18.4485 3.69738 18.4831 3.72299C19.4892 4.2808 18.7937 6.01507 18.4972 7.53608C18.2462 8.74264 18.0598 9.97034 18.2904 11.1052C19.2754 16.0659 14.6028 19.1925 11.4584 18.7378C14.592 19.5325 19.7205 16.3688 18.7041 11.1974C18.4735 10.0626 18.6388 8.89955 18.9109 7.6283C19.1773 6.11177 19.8728 4.3775 18.8968 3.81521Z" fill="#EBA352"/>
<path id="Vector_10" d="M15.5667 8.92643C13.7319 9.41509 11.3918 12.5019 13.7531 15.1347C11.899 12.3956 13.9209 10.0638 15.2926 9.15186C15.4252 9.00905 15.5667 8.92643 15.5667 8.92643Z" fill="#EBA352"/>
</g>
</g>
</svg>
