<svg width="12" height="10" viewBox="0 0 12 10" fill="none" xmlns="http://www.w3.org/2000/svg">
<path fill-rule="evenodd" clip-rule="evenodd" d="M4.47955 8.61367H1.60991C1.0336 8.61367 0.566406 8.14649 0.566406 7.57016V1.30913C0.566406 0.732818 1.0336 0.265625 1.60991 0.265625H4.47955C5.11959 0.265625 5.68783 0.572943 6.04481 1.04806C6.40179 0.572943 6.97003 0.265625 7.61007 0.265625H10.4797C11.056 0.265625 11.5232 0.732818 11.5232 1.30913V7.57016C11.5232 8.14649 11.056 8.61367 10.4797 8.61367H7.61007C7.14508 8.61367 6.74323 8.88399 6.55315 9.27609C6.45418 9.4802 6.27162 9.65717 6.04481 9.65717C5.818 9.65717 5.63544 9.4802 5.53647 9.27609C5.34639 8.88399 4.94454 8.61367 4.47955 8.61367ZM1.34904 1.30913C1.34904 1.16505 1.46583 1.04825 1.60991 1.04825H4.47955C5.12788 1.04825 5.6535 1.57385 5.6535 2.2222V8.2222C5.32651 7.97661 4.92002 7.83104 4.47955 7.83104H1.60991C1.46583 7.83104 1.34904 7.71422 1.34904 7.57016V1.30913ZM7.61007 1.04825C6.96174 1.04825 6.43612 1.57385 6.43612 2.2222V8.2222C6.76311 7.97661 7.16961 7.83104 7.61007 7.83104H10.4797C10.6238 7.83104 10.7406 7.71422 10.7406 7.57016V1.30913C10.7406 1.16505 10.6238 1.04825 10.4797 1.04825H7.61007Z" fill="black"/>
</svg>
