<svg width="26" height="23" viewBox="0 0 26 23" fill="none" xmlns="http://www.w3.org/2000/svg">
<path d="M15.0046 7.58333H19.4513M6.73958 13.6146H19.4633M7.05375 21.8333H19.1371M7.36792 1H18.8108C19.5962 1 20.2971 1.02083 20.9254 1.09375C24.2725 1.41667 25.1788 2.77083 25.1788 6.47917V13.0625C25.1788 16.7708 24.2725 18.125 20.9254 18.4479C20.2971 18.5208 19.6083 18.5417 18.8108 18.5417H7.36792C6.5825 18.5417 5.88167 18.5208 5.25333 18.4479C1.90625 18.125 1 16.7708 1 13.0625V6.47917C1 2.77083 1.90625 1.41667 5.25333 1.09375C5.88167 1.02083 6.5825 1 7.36792 1Z" stroke="#1080FB" stroke-width="1.5" stroke-linecap="round" stroke-linejoin="round"/>
</svg>
